<svg xmlns="http://www.w3.org/2000/svg" width="84" height="84" viewBox="0 0 84 84">
  <g id="Group_3368" data-name="Group 3368" transform="translate(-77 -2085)">
    <g id="Ellipse_178" data-name="Ellipse 178" transform="translate(77 2085)" fill="none" stroke="#707070" stroke-width="1">
      <circle cx="42" cy="42" r="42" stroke="none"/>
      <circle cx="42" cy="42" r="41.5" fill="none"/>
    </g>
    <g id="Group_1428" data-name="Group 1428" transform="translate(100 2115)">
      <path id="Path_395" data-name="Path 395" d="M20,42.835a1.447,1.447,0,0,1,.351-.857l9.967-10.59a1.248,1.248,0,0,1,1.762-.049,1.284,1.284,0,0,1,.049,1.762l-8,8.488h32a1.246,1.246,0,0,1,0,2.492h-32l8,8.487a1.3,1.3,0,0,1-.049,1.762,1.248,1.248,0,0,1-1.762-.049l-9.967-10.59A1.108,1.108,0,0,1,20,42.835Z" transform="translate(-20 -31)" fill="#030303"/>
    </g>
  </g>
</svg>
