<svg xmlns="http://www.w3.org/2000/svg" width="36" height="36" viewBox="0 0 36 36">
  <g id="Group_879" data-name="Group 879" transform="translate(-0.458)">
    <circle id="Ellipse_163" data-name="Ellipse 163" cx="18" cy="18" r="18" transform="translate(0.458)" fill="#f8cc46"/>
    <path id="Icon_awesome-dollar-sign" data-name="Icon awesome-dollar-sign" d="M7.428,8.286,3.594,7.164a1.047,1.047,0,0,1,.295-2.052H6.242a2.167,2.167,0,0,1,1.214.373.553.553,0,0,0,.692-.071L9.384,4.207a.575.575,0,0,0-.064-.87A5.02,5.02,0,0,0,6.249,2.272V.568A.57.57,0,0,0,5.681,0H4.545a.57.57,0,0,0-.568.568v1.7H3.889A3.89,3.89,0,0,0,.019,6.518,4.064,4.064,0,0,0,2.994,9.947l3.639,1.065a1.047,1.047,0,0,1-.295,2.052H3.984a2.167,2.167,0,0,1-1.214-.373.553.553,0,0,0-.692.071L.843,13.97a.575.575,0,0,0,.064.87A5.02,5.02,0,0,0,3.977,15.9v1.7a.57.57,0,0,0,.568.568H5.681a.57.57,0,0,0,.568-.568V15.9A4.01,4.01,0,0,0,10,13.316a3.9,3.9,0,0,0-2.574-5.03Z" transform="translate(12.998 9)" fill="#030303"/>
  </g>
</svg>
