<svg xmlns="http://www.w3.org/2000/svg" width="22.757" height="22.751" viewBox="0 0 22.757 22.751">
  <path id="Icon_awesome-instagram" data-name="Icon awesome-instagram" d="M11.376,7.78a5.833,5.833,0,1,0,5.833,5.833A5.824,5.824,0,0,0,11.376,7.78Zm0,9.626a3.792,3.792,0,1,1,3.792-3.792A3.8,3.8,0,0,1,11.376,17.406Zm7.432-9.864a1.361,1.361,0,1,1-1.361-1.361A1.357,1.357,0,0,1,18.808,7.542Zm3.863,1.381a6.733,6.733,0,0,0-1.838-4.767,6.777,6.777,0,0,0-4.767-1.838c-1.878-.107-7.509-.107-9.387,0A6.768,6.768,0,0,0,1.912,4.15,6.755,6.755,0,0,0,.075,8.917c-.107,1.878-.107,7.509,0,9.387a6.733,6.733,0,0,0,1.838,4.767A6.786,6.786,0,0,0,6.68,24.909c1.878.107,7.509.107,9.387,0a6.733,6.733,0,0,0,4.767-1.838A6.777,6.777,0,0,0,22.671,18.3c.107-1.878.107-7.5,0-9.382Zm-2.427,11.4a3.839,3.839,0,0,1-2.163,2.163c-1.5.594-5.051.457-6.706.457s-5.214.132-6.706-.457A3.839,3.839,0,0,1,2.506,20.32c-.594-1.5-.457-5.051-.457-6.706S1.918,8.4,2.506,6.907A3.839,3.839,0,0,1,4.669,4.744c1.5-.594,5.051-.457,6.706-.457s5.214-.132,6.706.457a3.839,3.839,0,0,1,2.163,2.163c.594,1.5.457,5.051.457,6.706S20.839,18.827,20.245,20.32Z" transform="translate(0.005 -2.238)" fill="#141414"/>
</svg>
