<svg xmlns="http://www.w3.org/2000/svg" width="23.686" height="15.989" viewBox="0 0 23.686 15.989">
  <path id="Icon_zocial-email" data-name="Icon zocial-email" d="M.072,18.641V5.484q0-.023.069-.434l7.743,6.624L.163,19.1a1.936,1.936,0,0,1-.091-.457ZM1.1,4.137a.984.984,0,0,1,.388-.069H22.342a1.293,1.293,0,0,1,.411.069l-7.766,6.647-1.028.822-2.033,1.667L9.894,11.606l-1.028-.822Zm.023,15.852,7.789-7.469,3.015,2.444,3.015-2.444,7.789,7.469a1.1,1.1,0,0,1-.388.069H1.488a1.034,1.034,0,0,1-.365-.069Zm14.847-8.314L23.69,5.05a1.363,1.363,0,0,1,.069.434V18.641a1.751,1.751,0,0,1-.069.457Z" transform="translate(-0.072 -4.068)" fill="#141414"/>
</svg>
