<svg xmlns="http://www.w3.org/2000/svg" width="36" height="36" viewBox="0 0 36 36">
  <g id="Group_880" data-name="Group 880" transform="translate(-0.458)">
    <circle id="Ellipse_163" data-name="Ellipse 163" cx="18" cy="18" r="18" transform="translate(0.458)" fill="#f8cc46"/>
    <path id="Icon_awesome-map" data-name="Icon awesome-map" d="M0,5.263V17.446a.563.563,0,0,0,.772.523l4.856-2.21V2.25L.708,4.218A1.126,1.126,0,0,0,0,5.263ZM6.754,15.758l6.754,2.251V4.5L6.754,2.25ZM19.49,2.291,14.633,4.5V18.009l4.921-1.968A1.126,1.126,0,0,0,20.262,15V2.814A.563.563,0,0,0,19.49,2.291Z" transform="translate(7.869 8.75)" fill="#030303"/>
  </g>
</svg>
