<svg xmlns="http://www.w3.org/2000/svg" width="36" height="36" viewBox="0 0 36 36">
  <g id="Group_881" data-name="Group 881" transform="translate(-0.458)">
    <circle id="Ellipse_163" data-name="Ellipse 163" cx="18" cy="18" r="18" transform="translate(0.458)" fill="#f8cc46"/>
    <path id="Icon_material-date-range" data-name="Icon material-date-range" d="M9.947,11.171H8.131v1.816H9.947Zm3.631,0H11.763v1.816h1.816Zm3.631,0H15.394v1.816H17.21Zm1.816-6.355h-.908V3H16.3V4.816H9.039V3H7.224V4.816H6.316A1.807,1.807,0,0,0,4.509,6.631L4.5,19.342a1.815,1.815,0,0,0,1.816,1.816h12.71a1.821,1.821,0,0,0,1.816-1.816V6.631A1.821,1.821,0,0,0,19.026,4.816Zm0,14.526H6.316V9.355h12.71Z" transform="translate(5.5 6)" fill="#030303"/>
  </g>
</svg>
