<svg id="Group_1914" data-name="Group 1914" xmlns="http://www.w3.org/2000/svg" width="37.375" height="23.671" viewBox="0 0 37.375 23.671">
  <path id="Path_395" data-name="Path 395" d="M57.375,42.835a1.447,1.447,0,0,0-.351-.857l-9.967-10.59A1.248,1.248,0,0,0,45.3,31.34a1.284,1.284,0,0,0-.049,1.762l8,8.488h-32a1.246,1.246,0,0,0,0,2.492h32l-8,8.487A1.3,1.3,0,0,0,45.3,54.33a1.248,1.248,0,0,0,1.762-.049l9.967-10.59a1.108,1.108,0,0,0,.351-.857Z" transform="translate(-20 -31)" fill="#030303"/>
</svg>
